<svg xmlns="http://www.w3.org/2000/svg" width="110" height="40" viewBox="0 0 109 40"><path style="stroke:none;fill-rule:nonzero;fill:#4285f4;fill-opacity:1" d="M49.035 10.707v2.266h5.387c-.16 1.265-.586 2.199-1.223 2.855-.785.785-2.023 1.652-4.164 1.652-3.308 0-5.902-2.68-5.902-6.015 0-3.332 2.594-6.012 5.902-6.012 1.781 0 3.098.707 4.055 1.613l1.582-1.586c-1.34-1.308-3.137-2.293-5.637-2.293-4.543 0-8.36 3.708-8.36 8.266 0 4.559 3.817 8.266 8.36 8.266 2.461 0 4.309-.813 5.758-2.32 1.488-1.493 1.953-3.587 1.953-5.278 0-.52-.039-1.016-.121-1.414Zm0 0"/><path style="stroke:none;fill-rule:nonzero;fill:#ea4335;fill-opacity:1" d="M63.473 8.879c-2.938 0-5.344 2.242-5.344 5.336 0 3.066 2.406 5.332 5.344 5.332 2.937 0 5.343-2.266 5.343-5.332 0-3.094-2.394-5.336-5.343-5.336Zm0 8.574c-1.61 0-3.004-1.332-3.004-3.238 0-1.922 1.394-3.242 3.004-3.242 1.609 0 3.004 1.32 3.004 3.242 0 1.906-1.383 3.238-3.004 3.238Zm0 0"/><path style="stroke:none;fill-rule:nonzero;fill:#4285f4;fill-opacity:1" d="M89.66 10.066h-.082c-.516-.625-1.527-1.199-2.805-1.199-2.656 0-4.968 2.32-4.968 5.332 0 3 2.312 5.336 4.968 5.336 1.278 0 2.29-.574 2.805-1.215h.082v.746c0 2.04-1.09 3.133-2.844 3.133-1.437 0-2.316-1.027-2.687-1.906l-2.035.84c.586 1.414 2.14 3.148 4.722 3.148 2.739 0 5.051-1.613 5.051-5.562V9.12h-2.222v.945Zm-2.687 7.387c-1.606 0-2.844-1.375-2.844-3.238 0-1.883 1.223-3.242 2.844-3.242 1.597 0 2.847 1.375 2.847 3.254 0 1.867-1.25 3.226-2.847 3.226Zm0 0"/><path style="stroke:none;fill-rule:nonzero;fill:#fbbc05;fill-opacity:1" d="M75.383 8.879c-2.938 0-5.344 2.242-5.344 5.336 0 3.066 2.406 5.332 5.344 5.332 2.937 0 5.344-2.266 5.344-5.332 0-3.094-2.407-5.336-5.344-5.336Zm0 8.574c-1.61 0-3.004-1.332-3.004-3.238 0-1.922 1.394-3.242 3.004-3.242s3.004 1.32 3.004 3.242c0 1.906-1.395 3.238-3.004 3.238Zm0 0"/><path style="stroke:none;fill-rule:nonzero;fill:#34a853;fill-opacity:1" d="M93.7 3.414H96V19.56h-2.3Zm0 0"/><path style="stroke:none;fill-rule:nonzero;fill:#ea4335;fill-opacity:1" d="M103.098 17.453c-1.196 0-2.035-.547-2.578-1.613l7.109-2.945-.223-.614c-.441-1.203-1.797-3.402-4.547-3.402-2.738 0-5.023 2.16-5.023 5.336 0 3 2.258 5.332 5.277 5.332 2.43 0 3.84-1.492 4.438-2.36l-1.809-1.214c-.625.879-1.449 1.48-2.644 1.48Zm-.16-6.574c.945 0 1.753.496 2.023 1.176l-4.813 2c0-2.254 1.582-3.176 2.79-3.176Zm0 0"/><path style="stroke:none;fill-rule:nonzero;fill:#6d6e6e;fill-opacity:1" d="M41.102 32.309c.492.304 1.21.558 1.953.558 1.117 0 1.77-.586 1.77-1.453 0-.8-.454-1.254-1.598-1.695-1.383-.492-2.23-1.211-2.23-2.399 0-1.32 1.089-2.308 2.737-2.308.864 0 1.489.203 1.871.414l-.304.894a3.392 3.392 0 0 0-1.61-.398c-1.156 0-1.593.691-1.593 1.265 0 .801.52 1.188 1.687 1.641 1.438.559 2.168 1.25 2.168 2.492 0 1.305-.969 2.442-2.965 2.442-.812 0-1.715-.242-2.168-.547ZM48.625 25.828c.012.371-.266.68-.703.68a.665.665 0 0 1-.668-.68c0-.387.293-.695.691-.695.426 0 .68.308.68.695Zm-1.223 7.813v-6.094h1.102v6.094ZM51.668 25.785v1.75h1.582v.84h-1.582v3.293c0 .758.215 1.184.824 1.184.293 0 .504-.04.637-.079l.055.829c-.211.09-.559.144-.985.144-.515 0-.93-.16-1.195-.465-.32-.336-.426-.867-.426-1.59v-3.316h-.941v-.84h.941v-1.469ZM55.031 30.785c.028 1.496.985 2.121 2.086 2.121.801 0 1.266-.133 1.692-.32l.183.8c-.383.173-1.05.376-2.02.376-1.874 0-2.992-1.242-2.992-3.082 0-1.84 1.079-3.293 2.848-3.293 1.98 0 2.512 1.746 2.512 2.867 0 .226-.028.398-.043.52H55.03ZM58.273 30c.016-.707-.289-1.8-1.527-1.8-1.117 0-1.61 1.027-1.7 1.8ZM63.262 32.309a3.836 3.836 0 0 0 1.953.558c1.117 0 1.765-.586 1.765-1.453 0-.8-.449-1.254-1.593-1.695-1.383-.492-2.235-1.211-2.235-2.399 0-1.32 1.09-2.308 2.739-2.308.863 0 1.488.203 1.875.414l-.305.894a3.42 3.42 0 0 0-1.61-.398c-1.156 0-1.593.691-1.593 1.265 0 .801.515 1.188 1.687 1.641 1.434.559 2.168 1.25 2.168 2.492 0 1.305-.972 2.442-2.965 2.442-.812 0-1.714-.242-2.168-.547ZM70.25 30.785c.027 1.496.984 2.121 2.09 2.121.797 0 1.262-.133 1.687-.32l.188.8c-.387.173-1.05.376-2.024.376-1.875 0-2.988-1.242-2.988-3.082 0-1.84 1.074-3.293 2.844-3.293 1.98 0 2.512 1.746 2.512 2.867 0 .226-.028.398-.04.52H70.25ZM73.496 30c.012-.707-.293-1.8-1.531-1.8-1.113 0-1.606 1.027-1.7 1.8ZM81.18 27.535c-.028.438-.055.93-.055 1.68v3.547c0 1.398-.277 2.25-.863 2.785-.586.558-1.45.734-2.207.734-.73 0-1.528-.176-2.02-.508l.278-.84c.398.255 1.023.481 1.78.481 1.13 0 1.954-.586 1.954-2.133v-.68h-.024c-.347.57-1 1.024-1.941 1.024-1.504 0-2.594-1.277-2.594-2.973 0-2.066 1.344-3.238 2.739-3.238 1.05 0 1.636.559 1.902 1.05h.027l.051-.917h.973Zm-1.145 2.41c0-.183-.012-.343-.066-.504-.2-.64-.746-1.175-1.543-1.175-1.051 0-1.809.894-1.809 2.308 0 1.2.602 2.188 1.797 2.188.676 0 1.29-.43 1.527-1.137.067-.184.094-.398.094-.586ZM88.04 31.973c0 .629.01 1.187.05 1.668h-.985l-.066-1h-.023a2.294 2.294 0 0 1-2.008 1.132c-.957 0-2.102-.535-2.102-2.668v-3.558h1.102v3.375c0 1.156.347 1.945 1.36 1.945.741 0 1.245-.52 1.46-1.015.067-.16.106-.36.106-.57v-3.747h1.105ZM89.871 29.441c0-.722-.012-1.336-.05-1.906h.968l.04 1.2h.054c.277-.813.941-1.337 1.687-1.337.121 0 .211.016.32.043v1.04a1.58 1.58 0 0 0-.374-.04c-.782 0-1.329.586-1.473 1.426a2.867 2.867 0 0 0-.055.52v3.254h-1.09v-4.2ZM99.363 30.535c0 2.25-1.554 3.238-3.031 3.238-1.648 0-2.91-1.214-2.91-3.132 0-2.04 1.328-3.243 3.016-3.243 1.742 0 2.925 1.27 2.925 3.137Zm-4.824.067c0 1.332.77 2.343 1.848 2.343 1.047 0 1.847-1 1.847-2.37 0-1.028-.52-2.348-1.824-2.348-1.312 0-1.87 1.214-1.87 2.375Zm0 0"/><path style="stroke:none;fill-rule:nonzero;fill:#eef5f3;fill-opacity:1" d="M17.32 38.055a4.62 4.62 0 0 1-1.742-.348l-.066-.027c-2.75-1.067-5.344-2.575-7.485-4.36C3.63 29.668 1.301 25 1.301 19.84V5.215c0-.215-.012-.442-.012-.906V1.426l15.5-.012h1.063l11.5.012h4v2.883c0 .25 0 .464-.012.703 0 .242-.016.496-.016.855V19.84c0 5.16-2.324 9.828-6.726 13.48-2.153 1.785-4.746 3.293-7.485 4.36l-.05.027a4.517 4.517 0 0 1-1.743.348Zm0 0"/><path style="stroke:none;fill-rule:nonzero;fill:#ccd4d9;fill-opacity:1" d="M17.32 38.055a4.62 4.62 0 0 1-1.742-.348l-.066-.027c-2.75-1.067-5.344-2.575-7.485-4.36C3.63 29.668 1.301 25 1.301 19.84V5.215c0-.215-.012-.442-.012-.906V1.426l15.5-.012"/><path style="stroke:none;fill-rule:nonzero;fill:#35b86f;fill-opacity:1" d="m29.352 4.309-11.5-.016H16.8l-12.625.016c0 .824.011.851.011 1.558V19.84c0 10.773 11.989 14.988 12.497 15.2.199.081.425.132.636.132.211 0 .438-.04.637-.133.508-.21 12.496-4.426 12.496-15.2V5.868c0-.707.016-1.039.016-1.558Zm0 0"/><path style="stroke:none;fill-rule:nonzero;fill:#2fb467;fill-opacity:1" d="M17.32 4.309h-.039s-.36-.016-.492-.016L4.16 4.309c0 .824.016.851.016 1.558V19.84c0 .332.011.652.023.973.692 10.109 11.977 14 12.469 14.214.2.094.426.133.64.133v-8.922c-.093.028.012-21.93.012-21.93Zm0 0"/><path style="stroke:none;fill-rule:nonzero;fill:#fff;fill-opacity:1" d="m10.781 20.879 3.215-3.133 2.063 1.934 7.242-7.215 3.031 3.082L16.203 25.96Zm0 0"/></svg>