<svg xmlns="http://www.w3.org/2000/svg" width="90" height="37" viewBox="0 0 91 37"><defs><clipPath id="a"><path d="M0 0h25v25H0Zm0 0"/></clipPath><clipPath id="b"><path d="m24.45 11.438-2.825 1.554 2.398 2.258-3.246.566 1.696 2.825-3.246-.422.707 3.246-2.965-1.41-.282 3.246-2.398-2.258-1.27 2.965-1.554-2.824-2.113 2.398-.567-3.246L5.82 22.03l.567-3.25-3.246.707 1.41-2.965-3.242-.28 2.257-2.403-3.105-1.27 2.96-1.554L.884 8.754l3.246-.563-1.691-2.824 3.382.422-.843-3.105 2.96 1.41.286-3.387 2.398 2.398L12.031 0l1.551 2.965L15.699.422l.563 3.25 2.824-1.695-.422 3.25 3.242-.707-1.41 2.964 3.246.282-2.258 2.402Zm0 0"/></clipPath><clipPath id="c"><path d="M3 3h18v18H3Zm0 0"/></clipPath><clipPath id="d"><path d="M20.496 12.004c0 4.601-3.726 8.332-8.324 8.332s-8.324-3.73-8.324-8.332 3.726-8.332 8.324-8.332 8.324 3.73 8.324 8.332Zm0 0"/></clipPath></defs><path style="stroke:none;fill-rule:nonzero;fill:#f6cd1d;fill-opacity:1" d="M3 31.773a6.442 6.442 0 0 0 .422 4.239 10.79 10.79 0 0 1 2.117-2.825 16.43 16.43 0 0 0 4.234 3.532 12.723 12.723 0 0 1-.28-10.453 148.857 148.857 0 0 1 3.1-6.352l-4.09-.707c0-.14-4.937 7.484-5.503 12.566Zm0 0"/><path style="stroke:none;fill-rule:nonzero;fill:#fcb040;fill-opacity:1" d="m10.055 37-.422-.14a12.573 12.573 0 0 1-4.235-3.391 13.44 13.44 0 0 0-1.976 2.683l-.14.282-.141-.141a6.748 6.748 0 0 1-.422-4.375 36.914 36.914 0 0 1 2.96-8.336c1.27-2.539 2.544-4.516 2.544-4.516v-.144l4.37.707-.14.14a63.238 63.238 0 0 0-3.101 6.356 12.945 12.945 0 0 0 .28 10.309Zm-4.516-4.094a13.183 13.183 0 0 0 3.813 3.246 16.125 16.125 0 0 1-1.13-4.52c-.179-1.937.16-3.886.985-5.648 1.414-3.105 2.684-5.507 3.105-6.214l-3.808-.704c-.566.848-4.797 7.907-5.363 12.567a8.136 8.136 0 0 0 .28 3.812 10.667 10.667 0 0 1 2.118-2.539Zm0 0"/><path style="stroke:none;fill-rule:nonzero;fill:#f6cd1d;fill-opacity:1" d="M12.594 20.195s0 8.754 3.668 11.438a25.42 25.42 0 0 1 .707-4.235s1.129.989 4.937.704c-1.41-.989-3.949-2.399-5.078-8.473-1.129-6.07-3.105-.848-3.105-.848Zm0 0"/><path style="stroke:none;fill-rule:nonzero;fill:#fcb040;fill-opacity:1" d="m16.406 32.059-.285-.141a8.005 8.005 0 0 1-2.113-2.969 23.995 23.995 0 0 1-1.13-3.812 31.369 31.369 0 0 1-.425-4.801l1.27-1.555c.14-.281.988-2.258 1.836-2.117.847.14 1.129 1.129 1.55 3.106.989 5.367 3.246 7.062 4.657 8.05.14.14.285.14.425.282l.282.285h-.422a8.879 8.879 0 0 1-4.942-.567c-.32 1.301-.554 2.621-.703 3.953Zm-3.672-11.723c.004 1.562.145 3.121.426 4.66.422 2.117 1.27 5.086 2.961 6.496.129-1.336.363-2.656.707-3.953l.14-.285.141.144s1.13.848 4.375.704c-1.41-.989-3.808-2.684-4.797-8.332-.425-2.399-.988-2.825-1.269-2.825-.566 0-1.27 1.133-1.555 1.977Zm0 0"/><g clip-path="url(#a)"><g clip-path="url(#b)"><path style="stroke:none;fill-rule:nonzero;fill:#056734;fill-opacity:1" d="m24.45 7.063-.848-.848-.282-.426-.285-.281-.281-.281-.281-.286-.282-.28-.285-.282-.281-.285-.563-.563-.425-.281-.282-.285-1.128-1.13-.282-.42-.28-.286-.286-.281-.281-.282-.282-.285-.28-.281H.46v17.086l.281.285.281.281.426.282.281.285 1.41 1.41.282.285.285.281.563.563.28.285.286.422.281.285.563.563.425.28.282.286 1.129 1.129h16.933Zm0 0"/></g></g><g clip-path="url(#c)"><g clip-path="url(#d)"><path style="stroke:none;fill-rule:nonzero;fill:#94c120;fill-opacity:1" d="m20.496 7.203-.14-.14-.141-.145-.422-.422v-.14l-.145-.141-.14-.14-.14-.145-1.692-1.692-.14-.144-.145-.14-.422-.423H3.848v13.133l.422.422.14.144.281.282.145.14.281.282.14.144.563.563.145.14.14.14.141.145 1.27 1.27h13.12V7.203Zm0 0"/></g></g><path style="stroke:none;fill-rule:nonzero;fill:#fff;fill-opacity:1" d="M3 6.777a40.15 40.15 0 0 1 8.184 11.016S18.52 6.496 27.41 1.977a30.041 30.041 0 0 0-15.945 10.308A16.952 16.952 0 0 0 3 6.777Zm0 0"/><path style="stroke:none;fill-rule:nonzero;fill:#056734;fill-opacity:1" d="M47.305 19.207h-.422a5.642 5.642 0 0 0-3.246 1.41 6.384 6.384 0 0 0-1.551 2.684c-.367 1-.606 2.047-.707 3.11a7.71 7.71 0 0 0 .14 3.105c.094.793.442 1.535.989 2.117a3.921 3.921 0 0 0 2.965 1.129c.297-.004.57.16.703.425.281.547.61 1.07.988 1.555.988-.426 2.117-.992 3.106-1.414-.422-.566-.989-1.129-1.41-1.695a5.398 5.398 0 0 0 1.269-1.836c.77-1.637 1.2-3.414 1.27-5.223a9.674 9.674 0 0 0-.282-2.824A3.619 3.619 0 0 0 49 19.348c-.566 0-1.129-.141-1.695-.141Zm-.422 3.246c.422 0 .707.14.707.426.105.316.152.652.14.988a20.283 20.283 0 0 1-.707 4.38 4.863 4.863 0 0 1-.421.843.902.902 0 0 1-1.27.144l-.14-.144a.143.143 0 0 0-.145-.14v-.141a3.15 3.15 0 0 1-.14-1.13v-.28c.038-1.243.23-2.477.566-3.672.14-.286.28-.707.422-.989.316-.144.648-.238.988-.285ZM52.95 19.488h3.667c-.14.989-.281 1.977-.422 2.825-.14 1.128-.28 2.117-.422 3.25a15.838 15.838 0 0 0-.285 2.683v.422c0 .707.426.848.989.707a.606.606 0 0 0 .566-.566c.117-.364.164-.747.14-1.13l.422-2.964c.141-.988.286-2.121.426-3.11.14-.703.14-1.27.282-1.976v-.14h3.667a1.8 1.8 0 0 1-.14.847c-.14 1.27-.281 2.402-.422 3.672-.145 1.27-.285 2.402-.426 3.531a12.027 12.027 0 0 1-.562 2.398 4.408 4.408 0 0 1-3.813 2.97 7.706 7.706 0 0 1-2.539-.145 3.006 3.006 0 0 1-2.258-2.54 8.592 8.592 0 0 1 .14-2.683c.145-1.129.286-2.121.427-3.25.14-1.129.281-2.117.422-3.246a5.769 5.769 0 0 1 .14-1.555ZM35.734 19.488c-.14 0-.28 0-.28.282-1.411 4.097-2.821 8.05-4.235 12.148-.14.281-.14.562-.282.844h3.247c.28 0 .28 0 .421-.282l.426-1.695h2.117v1.977h3.668c-.425-4.375-.707-8.754-1.129-13.133h-.28a32.022 32.022 0 0 0-3.673-.14Zm1.27 3.813c0 1.554.144 3.11.144 4.66h-1.414ZM61.559 32.621l1.691-13.133h3.668c.023.29-.023.582-.14.848l-.423 2.965-.425 2.965c-.14 1.132-.282 2.12-.422 3.25-.14 1.129-.281 2.117-.422 3.105l-.14.14a26.519 26.519 0 0 0-3.387-.14Zm0 0"/><path style="stroke:none;fill-rule:nonzero;fill:#94c120;fill-opacity:1" d="M76.516 16.523h-3.387c0-.425.14-.988.14-1.414.172-.882.266-1.78.282-2.683 0-.422.14-.844.14-1.41v-.282c0-.144 0-.425-.28-.425-.282 0-.423-.141-.708.14-.281.285-.281.567-.422.848-.14 1.273-.281 2.543-.566 3.953 0 .426-.14.707-.14 1.133v.281h-3.388c0-.281.145-.566.145-.988.14-1.13.281-2.403.422-3.531.117-1.282.308-2.551.562-3.813a1.066 1.066 0 0 1 .145-.707l.14-.14h3.102c0 .425-.14.847-.14 1.269l.14-.14a3.269 3.269 0 0 1 2.684-1.27 1.692 1.692 0 0 1 1.832 1.41v.144l.847-.847a3.488 3.488 0 0 1 2.68-.567c.734.22 1.211.934 1.129 1.696.031.476-.016.953-.14 1.41-.141 1.133-.282 2.12-.422 3.25-.141 1.129-.282 1.836-.426 2.824l-.14.14h-3.102c.14-.706.14-1.269.28-1.976.141-1.129.282-2.117.423-3.246v-.426c0-.281 0-.422-.282-.422-.28 0-.421 0-.707.141a1.066 1.066 0 0 0-.28.707c-.282 1.691-.423 3.387-.704 4.941.14-.28.14-.14.14 0ZM34.89 3.39h-2.257l-1.696 13.133h3.668c.286-1.695.426-3.25.708-4.941.28 1.691.707 3.246.988 4.941h3.949c-.563-1.976-1.27-3.812-1.832-5.789.14 0 .14 0 .14-.144a3.86 3.86 0 0 0 1.833-1.55c.52-.74.722-1.653.566-2.544a2.826 2.826 0 0 0-1.27-2.402 4.519 4.519 0 0 0-2.683-.703Zm1.27 2.684a.975.975 0 0 1 .707.278c.188.187.29.445.281.71.055.489-.043.981-.285 1.41a.14.14 0 0 1-.14.141c-.325.348-.801.508-1.27.426.14-.988.281-2.121.422-3.11h.145c0 .079.062.145.14.145ZM63.25 7.063c-.672.019-1.32.269-1.832.703a5.342 5.342 0 0 0-1.273 2.12 8.758 8.758 0 0 0-.563 3.247c-.047.719.05 1.437.281 2.117a2.12 2.12 0 0 0 1.696 1.555 2.523 2.523 0 0 0 1.972-.563l.567-.566c0 .281-.141.566-.141.988h3.668c.422-3.105.848-6.215 1.27-9.18h-3.387c0 .282-.14.567-.14.989-.141-.141-.141-.141-.141-.282a3.679 3.679 0 0 0-.848-.707 1.27 1.27 0 0 0-1.129-.421Zm.988 2.824h.282c.14 0 .285.14.285.422 0 .28.14.425.14.566v.14c0 .567-.14 1.13-.14 1.555 0 .14-.145.282-.145.422s-.14.426-.281.567a.525.525 0 0 1-.848 0 .52.52 0 0 1-.14-.286c0-.28-.141-.421-.141-.703a9.684 9.684 0 0 1 .281-1.98c.145-.14.145-.422.285-.563.141-.14.282-.14.422-.14ZM87.098 7.063a4.127 4.127 0 0 0-3.668 1.835 7.349 7.349 0 0 0-1.13 5.364 3.11 3.11 0 0 0 1.13 1.836 5.355 5.355 0 0 0 2.113.707 4.468 4.468 0 0 0 4.375-2.825c.14-.28.14-.421.281-.707h-2.68a.143.143 0 0 0-.14.145c-.14.14-.14.422-.281.562a.872.872 0 0 1-.989.282c-.28-.14-.566-.282-.566-.703v-1.274l.144-.14h4.657v-.141c.191-.883.238-1.79.14-2.684a2.718 2.718 0 0 0-1.554-2.117 8.002 8.002 0 0 0-1.832-.14Zm-.141 2.117a.924.924 0 0 1 .703.566v.844l-.14.144h-1.977c0-.144.144-.144.144-.285l.422-.847c.16-.172.352-.317.563-.422Zm0 0"/><path style="stroke:none;fill-rule:nonzero;fill:#94c120;fill-opacity:1" d="M45.047 7.063a3.606 3.606 0 0 0-3.242 1.69 6.457 6.457 0 0 0-1.13 5.509 2.704 2.704 0 0 0 2.114 2.402c.7.117 1.41.164 2.117.14a4.231 4.231 0 0 0 3.528-3.245v-.141h-2.68l-.14.14c-.106.29-.305.54-.567.704-.563.285-1.129.144-1.27-.422a4.766 4.766 0 0 1 0-1.414h4.942a7.154 7.154 0 0 0 0-2.965 2.728 2.728 0 0 0-2.117-2.117 2.813 2.813 0 0 0-1.555-.282Zm0 2.117h.285a.724.724 0 0 1 .563.707v.703l-.141.144h-1.836v-.285l.426-.847.281-.282c.281-.14.281-.14.422-.14ZM54.785 16.523c.563-4.8 1.27-9.605 1.832-14.406h3.387c.023.29-.024.582-.14.848-.141 1.129-.282 2.402-.423 3.531-.14 1.129-.28 2.402-.421 3.531a35.882 35.882 0 0 1-.567 3.813c-.156.793-.25 1.594-.281 2.402a.14.14 0 0 1-.14.14h-2.966c-.14.141-.14.141-.28.141ZM54.36 13.559c0 .421-.141.847-.141 1.27 0 .421-.14.987-.14 1.413a.14.14 0 0 1-.142.14 3.44 3.44 0 0 1-3.667-.284 2.816 2.816 0 0 1-1.13-1.977 7.484 7.484 0 0 1 .989-5.223 3.912 3.912 0 0 1 2.68-1.835 3.561 3.561 0 0 1 2.398.28c-.14.989-.281 1.837-.422 2.825-.14 0-.281-.14-.426-.14a1.05 1.05 0 0 0-1.129.562c-.421.726-.57 1.578-.421 2.402a.876.876 0 0 0 1.129.707c.113-.11.269-.16.421-.14Zm0 0"/></svg>