<svg xmlns="http://www.w3.org/2000/svg" width="80" height="38"><path style="stroke:none;fill-rule:nonzero;fill:#545454;fill-opacity:1" d="M35.16 6.54c2.309 0 3.461 1.304 3.461 3.769v.433h-2.164v-.594c0-1.015-.434-1.449-1.152-1.449-.723 0-1.157.434-1.157 1.45 0 3.046 4.473 3.624 4.473 7.828 0 2.32-1.152 3.77-3.46 3.77-2.31 0-3.466-1.306-3.466-3.77v-.868h2.164v1.012c0 1.016.434 1.453 1.157 1.453.718 0 1.152-.437 1.152-1.453 0-3.043-4.473-3.621-4.473-7.828.145-2.45 1.301-3.754 3.465-3.754ZM42.23 12.918h3.172v2.176H42.23v4.347h4.04v2.176h-6.348V6.828h6.348v2.176h-4.04ZM51.176 13.207h3.172v4.64c0 2.321-1.153 3.77-3.461 3.77-2.309 0-3.465-1.305-3.465-3.77v-7.699c0-2.32 1.156-3.77 3.465-3.77 2.308 0 3.46 1.306 3.46 3.77v1.45h-2.163V10.02c0-1.016-.43-1.45-1.153-1.45-.722 0-1.156.434-1.156 1.45v7.972c0 1.016.434 1.45 1.156 1.45.723 0 1.153-.434 1.153-1.45v-2.754h-1.008ZM58.102 6.684v11.453c0 1.015.433 1.449 1.152 1.449.723 0 1.156-.434 1.156-1.45V6.685h2.164v11.308c0 2.32-1.156 3.77-3.465 3.77-2.308 0-3.46-1.305-3.46-3.77V6.684ZM69.066 21.473a4.064 4.064 0 0 1-.144-1.887v-2.32c0-1.45-.434-1.883-1.442-1.883h-.867v5.945h-2.308V6.54h3.465c2.453 0 3.46 1.16 3.46 3.48v1.16a3.03 3.03 0 0 1-1.585 3.044c1.152.433 1.585 1.593 1.585 3.191v2.316a3.74 3.74 0 0 0 .29 1.743ZM66.47 8.859v4.493h.867c.867 0 1.441-.434 1.441-1.594v-1.45c0-1.015-.433-1.449-1.152-1.449ZM72.531 10.148a3.55 3.55 0 0 1 3.317-3.77c1.953-.12 3.632 1.376 3.754 3.337v8.117a3.556 3.556 0 0 1-3.32 3.77 3.542 3.542 0 0 1-3.75-3.332Zm2.309 7.829c0 1.015.43 1.449 1.152 1.449.723 0 1.156-.434 1.156-1.45V10.02c0-1.016-.433-1.45-1.156-1.45-.722 0-1.152.434-1.152 1.45ZM34.871 28.867v.867a1.567 1.567 0 0 1-1.586 1.743c-1.012 0-1.59-.582-1.59-1.743v-3.332c-.054-.453.09-.906.395-1.242.305-.34.742-.523 1.195-.512 1.008 0 1.586.579 1.586 1.739v.582H33.86v-.582c0-.434-.144-.727-.574-.727-.433 0-.578.149-.578.727v3.625c0 .433.145.578.578.578.43 0 .574-.145.574-.578v-1.016ZM36.457 27.547h1.445v1.015h-1.445v2.028h1.875v.87h-2.883v-6.667h2.883v1.016h-1.875ZM41.074 31.332a1.85 1.85 0 0 1-.144-.871v-1.016c0-.578-.145-.87-.72-.87h-.433v2.757h-1.011v-6.684h1.586a1.445 1.445 0 0 1 1.59 1.594v.578a1.05 1.05 0 0 1-.723 1.305c.578.148.722.727.722 1.453v1.012c-.039.254.012.508.145.726Zm-1.152-5.656v2.031h.43c.433 0 .578-.145.578-.727v-.578c0-.437-.145-.726-.578-.726ZM42.375 24.648h3.172v1.012h-1.152v5.656h-1.012V25.66H42.23ZM46.125 24.648h1.012v6.668h-1.012ZM49.012 27.707h1.297v.867h-1.297v2.758H48v-6.684h2.742v1.012h-1.73ZM51.176 24.648h1.008v6.668h-1.008ZM56.082 28.867v.867a1.567 1.567 0 0 1-1.59 1.743c-1.008 0-1.586-.582-1.586-1.743v-3.332c-.054-.453.09-.906.395-1.242a1.54 1.54 0 0 1 1.191-.512c1.012 0 1.59.579 1.59 1.739v.582H55.07v-.582c0-.434-.144-.727-.578-.727-.43 0-.574.149-.574.727v3.625c0 .433.145.578.574.578.434 0 .578-.145.578-.578v-1.016ZM59.977 31.332h-1.008l-.145-1.16h-1.3l-.145 1.16H56.37l1.008-6.672h1.59Zm-2.309-2.031h1.012l-.578-3.336ZM60.555 24.648h1.586c.433-.046.863.106 1.172.415.308.312.46.742.414 1.18v3.335a1.445 1.445 0 0 1-1.586 1.594h-1.586Zm1.008 1.012v4.785h.578c.289 0 .578-.144.578-.722v-3.336c0-.434-.145-.727-.578-.727ZM64.305 26.402c0-.882.71-1.597 1.59-1.597.875 0 1.585.715 1.585 1.597v3.48c0 .88-.71 1.595-1.585 1.595-.88 0-1.59-.715-1.59-1.594Zm1.011 3.48c0 .434.145.723.579.723.43 0 .574-.144.574-.722v-3.625c0-.438-.145-.727-.574-.727-.434 0-.579.145-.579.727ZM71.086 24.648c1.012 0 1.59.579 1.59 1.739v.144h-1.012v-.289c0-.433-.144-.726-.578-.726-.434 0-.574.144-.574.726 0 1.45 2.02 1.594 2.02 3.48.05.45-.098.9-.403 1.231-.305.336-.734.52-1.188.508-1.007 0-1.586-.578-1.586-1.738v-.438h1.012v.438c0 .433.145.578.574.578.434 0 .579-.145.579-.578 0-1.45-2.02-1.598-2.02-3.48a1.453 1.453 0 0 1 .414-1.18c.309-.31.738-.461 1.172-.415ZM74.55 24.648c1.009 0 1.587.579 1.587 1.739v.144h-1.008v-.289c0-.433-.145-.726-.578-.726-.434 0-.578.144-.578.726 0 1.45 2.02 1.594 2.02 3.48a1.56 1.56 0 0 1-1.587 1.739c-1.011 0-1.586-.578-1.586-1.738v-.438h1.008v.438c0 .433.145.578.578.578.434 0 .578-.145.578-.578 0-1.45-2.023-1.598-2.023-3.48.144-1 .578-1.595 1.59-1.595ZM76.715 24.648h1.008v5.797h1.734v.871h-2.742Zm0 0"/><path style="stroke:none;fill-rule:nonzero;fill:#9ac201;fill-opacity:1" d="M12.363 14.656V38S.387 37.422.387 26.402V14.805h11.976Zm0 0"/><path style="stroke:none;fill-rule:nonzero;fill:#b1ce00;fill-opacity:1" d="M12.363 14.656V38s11.973-.578 11.973-11.598V14.805H12.363Zm0 0"/><path style="stroke:none;fill-rule:nonzero;fill:#e6f3e2;fill-opacity:1" d="M12.363 0a6.78 6.78 0 0 0-6.351 3.625 10.653 10.653 0 0 0-1.297 5.074v5.946H8.03v-7.25a4 4 0 0 1 1.735-3.192 4.82 4.82 0 0 1 5.191 0 3.492 3.492 0 0 1 1.734 3.192v7.25h3.317V8.699c0-1.773-.45-3.52-1.297-5.074A6.919 6.919 0 0 0 12.363 0Zm0 0"/><path style="stroke:none;fill-rule:nonzero;fill:#fff;fill-opacity:1" d="m8.898 22.777-2.02 2.028 3.895 4.496 6.926-6.813-2.308-2.465-4.329 4.93Zm0 0"/></svg>